<svg version="1.1" xmlns="http://www.w3.org/2000/svg" xmlns:xlink="http://www.w3.org/1999/xlink" width="204.66666px" height="211.33337px" class="slides-canvas" viewBox="-1 -1 154 159" preserveAspectRatio="none"> 
 <g text-rendering="geometricPrecision" transform="scale(1, 1)"> 
  <g transform="matrix(1, 0, 0, 1, -39, -353)"> 
   <path fill="#D7F5EF" d="M38.71 378.24C38.71 364.17 50.12 352.76 64.2 352.76L64.2 352.76 64.2 352.76 102.42 352.76 166.12 352.76C180.2 352.76 191.61 364.17 191.61 378.24L191.61 444.86 191.61 444.86 191.61 484.33 191.61 485.16C191.61 499.24 180.2 510.64 166.12 510.64L102.42 510.64 83.31 530.38 64.2 510.64 64.2 510.64C50.12 510.64 38.71 499.24 38.71 485.16L38.71 484.33 38.71 444.86 38.71 444.86z" /> 
  </g> 
 </g> 
</svg>