<svg version="1.1" xmlns="http://www.w3.org/2000/svg" xmlns:xlink="http://www.w3.org/1999/xlink" width="34.0px" height="34.0px" class="slides-canvas" viewBox="-1 -1 26 26" preserveAspectRatio="none"> 
 <g text-rendering="geometricPrecision" transform="scale(1, 1)"> 
  <g transform="matrix(1, 0, 0, 1, -764, -284)"> 
   <path fill="#FFFFFF" d="M784.59 298.51C784.59 298.51 784.87 298.23 784.87 298.23 785.99 298.23 785.99 298.23 785.99 298.23 787.11 298.23 787.96 297.39 787.96 296.28 787.96 294.61 787.96 294.61 787.96 294.61 787.96 293.5 787.11 292.67 785.99 292.67 784.87 292.67 784.87 292.67 784.87 292.67 784.87 292.67 784.59 292.39 784.59 292.39 784.59 292.11 784.31 291.56 784.31 291.28 784.03 291.28 784.31 291 784.31 291 785.15 290.17 785.15 290.17 785.15 290.17 785.71 289.33 785.71 288.22 785.15 287.39 783.75 286.27 783.75 286.27 783.75 286.27 783.47 285.72 782.91 285.44 782.35 285.44 781.79 285.44 781.23 285.72 780.95 286.27 780.11 286.83 780.11 286.83 780.11 286.83 780.11 286.83 780.11 287.11 779.83 287.11 779.83 286.83 779.83 286.83 779.83 286.83 779.55 286.83 778.99 286.55 778.7 286.55 778.7 286.55 778.42 286.27 778.42 286.27 778.42 285.16 778.42 285.16 778.42 285.16 778.42 284.05 777.58 283.22 776.46 283.22 774.78 283.22 774.78 283.22 774.78 283.22 773.66 283.22 772.82 284.05 772.82 285.16 772.82 286.27 772.82 286.27 772.82 286.27 772.82 286.27 772.54 286.55 772.54 286.55 772.26 286.55 771.98 286.83 771.42 286.83 771.42 287.11 771.42 287.11 771.42 287.11 771.14 287.11 771.14 286.83 771.14 286.83 770.29 286.27 770.29 286.27 770.29 286.27 770.01 285.72 769.45 285.44 768.89 285.44 768.33 285.44 768.05 285.72 767.49 286.27 766.37 287.39 766.37 287.39 766.37 287.39 765.53 288.22 765.53 289.33 766.37 290.17 766.93 291 766.93 291 766.93 291 767.21 291 767.21 291.28 767.21 291.28 766.93 291.56 766.93 292.11 766.65 292.39 766.65 292.39 766.37 292.67 766.37 292.67 765.25 292.67 765.25 292.67 765.25 292.67 764.13 292.67 763.29 293.5 763.29 294.61 763.29 296.28 763.29 296.28 763.29 296.28 763.29 297.39 764.13 298.23 765.25 298.23 766.37 298.23 766.37 298.23 766.37 298.23 766.37 298.23 766.65 298.51 766.65 298.51 766.93 298.78 766.93 299.34 767.21 299.62 767.21 299.62 767.21 299.9 766.93 299.9 766.37 300.73 766.37 300.73 766.37 300.73 765.81 301.01 765.81 301.56 765.81 302.12 765.81 302.68 765.81 303.23 766.37 303.51 767.49 304.9 767.49 304.9 767.49 304.9 768.05 305.18 768.33 305.46 768.89 305.46 769.45 305.46 770.01 305.18 770.29 304.9 771.14 304.07 771.14 304.07 771.14 304.07 771.14 304.07 771.14 303.79 771.42 303.79 771.42 304.07 771.42 304.07 771.42 304.07 771.98 304.07 772.26 304.34 772.54 304.34 772.54 304.34 772.82 304.62 772.82 304.62 772.82 305.73 772.82 305.73 772.82 305.73 772.82 306.85 773.66 307.68 774.78 307.68 776.46 307.68 776.46 307.68 776.46 307.68 777.58 307.68 778.42 306.85 778.42 305.73 778.42 304.62 778.42 304.62 778.42 304.62 778.42 304.62 778.7 304.34 778.7 304.34 778.99 304.34 779.55 304.07 779.83 304.07 779.83 303.79 779.83 303.79 779.83 303.79 780.11 303.79 780.11 304.07 780.11 304.07 780.95 304.9 780.95 304.9 780.95 304.9 781.23 305.18 781.79 305.46 782.35 305.46 782.91 305.46 783.47 305.18 783.75 304.9 785.15 303.51 785.15 303.51 785.15 303.51 785.71 302.68 785.71 301.56 785.15 300.73 784.31 299.9 784.31 299.9 784.31 299.9 784.31 299.9 784.03 299.62 784.31 299.62 784.31 299.34 784.59 298.78 784.59 298.51zM779.55 295.45C779.55 297.39 777.86 299.34 775.62 299.34 773.66 299.34 771.98 297.39 771.98 295.45 771.98 293.5 773.66 291.83 775.62 291.83 777.86 291.83 779.55 293.5 779.55 295.45z" /> 
  </g> 
 </g> 
</svg>