<svg version="1.1" xmlns="http://www.w3.org/2000/svg" xmlns:xlink="http://www.w3.org/1999/xlink" width="19.333338px" height="19.333338px" class="slides-canvas" viewBox="-1 -1 15 15" preserveAspectRatio="none"> 
 <g text-rendering="geometricPrecision" transform="scale(1, 1)"> 
  <g transform="matrix(1, 0, 0, 1, -445, -284)"> 
   <path fill="#FFFFFF" d="M447.01 287.67C449.8 287.67 453.14 288.23 455.92 288.23 455.37 287.67 454.81 286.55 454.25 286 453.14 288.78 452.58 291.57 451.47 294.35 450.91 296.58 454.25 297.7 455.37 294.91 455.92 292.12 457.04 289.34 457.59 286.55 458.15 285.44 457.04 284.33 455.92 284.33 453.14 284.33 449.8 283.77 447.01 283.77 444.22 283.77 444.22 287.11 447.01 287.67z" /> 
  </g> 
 </g> 
</svg>