<svg version="1.1" xmlns="http://www.w3.org/2000/svg" xmlns:xlink="http://www.w3.org/1999/xlink" width="43.33334px" height="50.0px" class="slides-canvas" viewBox="-1 -1 33 38" preserveAspectRatio="none"> 
 <g text-rendering="geometricPrecision" transform="scale(1, 1)"> 
  <g transform="matrix(1, 0, 0, 1, -498, -214)"> 
   <path fill="#FFFFFF" d="M513.92 213.31C512.76 213.31 512.76 213.31 512.76 213.31 503.54 213.89 497.77 220.82 498.35 228.33 498.93 236.41 503.54 237.57 504.12 242.19 504.69 247.39 505.84 249.7 505.84 249.7 505.84 249.7 505.84 249.7 505.84 249.7 506.42 249.7 506.42 250.28 507 250.28 519.68 250.28 519.68 250.28 519.68 250.28 520.26 250.28 520.83 249.7 520.83 249.7 520.83 249.7 520.83 249.7 520.83 249.7 520.83 249.7 522.56 247.39 523.14 242.19 523.72 237.57 527.75 236.41 528.33 228.33 528.9 220.82 523.72 213.89 513.92 213.31z" /> 
  </g> 
 </g> 
</svg>