<svg version="1.1" xmlns="http://www.w3.org/2000/svg" xmlns:xlink="http://www.w3.org/1999/xlink" width="27.333334px" height="27.333334px" class="slides-canvas" viewBox="-1 -1 21 21" preserveAspectRatio="none"> 
 <g text-rendering="geometricPrecision" transform="scale(1, 1)"> 
  <g transform="matrix(1, 0, 0, 1, -424, -241)"> 
   <path fill="#FFFFFF" d="M434.74 240.61C432.4 240.61 432.4 240.61 432.4 240.61 431.47 243.39 431.47 243.39 431.47 243.39 431 243.39 430.07 243.85 429.6 244.31 427.26 242.46 427.26 242.46 427.26 242.46 425.86 244.31 425.86 244.31 425.86 244.31 427.26 246.62 427.26 246.62 427.26 246.62 426.8 247.09 426.33 248.01 426.33 248.47 423.53 248.94 423.53 248.94 423.53 248.94 423.53 251.25 423.53 251.25 423.53 251.25 426.33 252.17 426.33 252.17 426.33 252.17 426.33 252.63 426.8 253.56 427.26 254.02 425.86 256.33 425.86 256.33 425.86 256.33 427.26 257.72 427.26 257.72 427.26 257.72 429.6 256.33 429.6 256.33 429.6 256.33 430.07 256.8 431 257.26 431.94 257.26 432.4 260.03 432.4 260.03 432.4 260.03 434.74 260.03 434.74 260.03 434.74 260.03 435.21 257.26 435.21 257.26 435.21 257.26 435.67 257.26 436.61 256.8 437.07 256.33 439.41 258.18 439.41 258.18 439.41 258.18 441.28 256.33 441.28 256.33 441.28 256.33 439.88 254.02 439.88 254.02 439.88 254.02 440.34 253.56 440.34 252.63 440.81 252.17 443.15 251.25 443.15 251.25 443.15 251.25 443.15 248.94 443.15 248.94 443.15 248.94 440.34 248.47 440.34 248.47 440.34 248.47 440.34 247.55 439.88 247.09 439.88 246.62 441.28 244.31 441.28 244.31 441.28 244.31 439.41 242.46 439.41 242.46 439.41 242.46 437.07 243.85 437.07 243.85 437.07 243.85 436.61 243.85 436.14 243.39 435.21 243.39L434.74 240.61zM438.47 250.32C438.47 252.63 436.14 254.95 433.34 254.95 431 254.95 428.67 252.63 428.67 250.32 428.67 247.55 431 245.24 433.34 245.24 436.14 245.24 438.47 247.55 438.47 250.32z" /> 
  </g> 
 </g> 
</svg>