<svg version="1.1" xmlns="http://www.w3.org/2000/svg" xmlns:xlink="http://www.w3.org/1999/xlink" width="27.333334px" height="32.66666px" class="slides-canvas" viewBox="-1 -1 21 25" preserveAspectRatio="none"> 
 <g text-rendering="geometricPrecision" transform="scale(1, 1)"> 
  <g transform="matrix(1, 0, 0, 1, -302, -90)"> 
   <path fill="#96D4CA" d="M311.58 89.51C305.97 89.51 301.76 93.76 301.76 99.42 301.76 101.78 302.23 103.67 303.63 105.56 304.57 106.5 306.9 110.28 307.37 112.64 307.37 113.11 307.37 113.11 307.37 113.11 315.78 113.11 315.78 113.11 315.78 113.11 315.78 112.64 315.78 112.64 315.78 112.64 316.25 110.28 318.59 106.5 319.52 105.56 320.93 103.67 321.39 101.78 321.39 99.42 321.39 93.76 317.19 89.51 311.58 89.51zM318.59 105.08C318.12 106.03 315.78 109.8 315.32 112.16 307.84 112.16 307.84 112.16 307.84 112.16 307.37 109.8 305.03 106.03 304.57 105.08 303.16 103.2 302.23 101.31 302.23 99.42 302.23 94.23 306.44 89.98 311.58 89.98 316.72 89.98 320.93 94.23 320.93 99.42 320.93 101.31 319.99 103.2 318.59 105.08z" /> 
  </g> 
 </g> 
</svg>