<svg version="1.1" xmlns="http://www.w3.org/2000/svg" xmlns:xlink="http://www.w3.org/1999/xlink" width="261.99997px" height="271.33337px" class="slides-canvas" viewBox="-1 -1 197 204" preserveAspectRatio="none"> 
 <g text-rendering="geometricPrecision" transform="scale(1, 1)"> 
  <g transform="matrix(1, 0, 0, 1, -496, -113)"> 
   <path fill="#96D4CA" d="M495.93 144.93C495.93 126.9 510.54 112.28 528.58 112.28L528.57 112.28 528.57 112.28 577.55 112.28 659.17 112.28 659.17 112.28C677.2 112.28 691.82 126.9 691.82 144.93L691.82 230.28 691.82 230.28 691.82 280.85 691.82 281.92 691.82 281.92C691.82 299.95 677.2 314.57 659.17 314.57L577.55 314.57 553.06 339.85 528.57 314.57 528.58 314.57C510.54 314.57 495.93 299.95 495.93 281.92L495.93 280.85 495.93 230.28 495.93 230.28z" /> 
  </g> 
 </g> 
</svg>