<svg version="1.1" xmlns="http://www.w3.org/2000/svg" xmlns:xlink="http://www.w3.org/1999/xlink" width="35.333332px" height="35.333332px" class="slides-canvas" viewBox="-1 -1 27 27" preserveAspectRatio="none"> 
 <g text-rendering="geometricPrecision" transform="scale(1, 1)"> 
  <g transform="matrix(1, 0, 0, 1, -131, -271)"> 
   <path fill="#FFFFFF" d="M143.26 277.03C143.5 277.03 143.75 277.03 143.75 277.03 148.66 272.35 148.66 272.35 148.66 272.35 148.66 272.1 148.66 272.1 148.66 272.1 146.94 271.36 145.22 270.87 143.26 270.87 136.38 270.87 130.74 276.54 130.74 283.69 130.74 290.6 136.38 296.28 143.26 296.28 150.38 296.28 155.78 290.6 155.78 283.69 155.78 281.72 155.53 279.99 154.8 278.27 154.55 278.27 154.55 278.27 154.55 278.27 149.89 283.2 149.89 283.2 149.89 283.2 149.89 283.2 149.89 283.45 149.89 283.69 149.89 287.4 146.94 290.36 143.26 290.36 139.57 290.36 136.63 287.4 136.63 283.69 136.63 279.99 139.57 277.03 143.26 277.03z" /> 
  </g> 
 </g> 
</svg>