<svg version="1.1" xmlns="http://www.w3.org/2000/svg" xmlns:xlink="http://www.w3.org/1999/xlink" width="27.333334px" height="27.333334px" class="slides-canvas" viewBox="-1 -1 21 21" preserveAspectRatio="none"> 
 <g text-rendering="geometricPrecision" transform="scale(1, 1)"> 
  <g transform="matrix(1, 0, 0, 1, -446, -241)"> 
   <path fill="#FFFFFF" d="M456.6 240.61C453.82 240.61 453.82 240.61 453.82 240.61 453.36 243.39 453.36 243.39 453.36 243.39 452.44 243.39 451.97 243.85 451.51 243.85 449.2 242.46 449.2 242.46 449.2 242.46 447.35 244.31 447.35 244.31 447.35 244.31 448.74 246.62 448.74 246.62 448.74 246.62 448.74 247.09 448.27 248.01 448.27 248.47 445.5 248.94 445.5 248.94 445.5 248.94 445.5 251.25 445.5 251.25 445.5 251.25 448.27 252.17 448.27 252.17 448.27 252.17 448.27 252.63 448.74 253.56 448.74 254.02 447.35 256.33 447.35 256.33 447.35 256.33 449.2 258.18 449.2 258.18 449.2 258.18 451.51 256.33 451.51 256.33 451.51 256.33 451.97 256.8 452.9 257.26 453.36 257.26 453.82 260.03 453.82 260.03 453.82 260.03 456.13 260.03 456.13 260.03 456.13 260.03 457.06 257.26 457.06 257.26 457.06 257.26 457.52 257.26 458.45 256.8 458.91 256.8 461.22 258.18 461.22 258.18 461.22 258.18 462.61 256.33 462.61 256.33 462.61 256.33 461.22 254.02 461.22 254.02 461.22 254.02 461.68 253.56 462.15 252.63 462.15 252.17 464.92 251.25 464.92 251.25 464.92 251.25 464.92 248.94 464.92 248.94 464.92 248.94 462.15 248.47 462.15 248.47 462.15 248.47 462.15 247.55 461.68 247.09 461.22 246.62 463.07 244.31 463.07 244.31 463.07 244.31 461.22 242.46 461.22 242.46 461.22 242.46 458.91 243.85 458.91 243.85 458.91 243.85 458.45 243.85 457.52 243.39 457.06 243.39L456.6 240.61zM460.3 250.32C460.3 252.63 457.98 254.95 455.21 254.95 452.44 254.95 450.59 252.63 450.59 250.32 450.59 247.55 452.44 245.24 455.21 245.24 457.98 245.24 460.3 247.55 460.3 250.32z" /> 
  </g> 
 </g> 
</svg>