<svg version="1.1" xmlns="http://www.w3.org/2000/svg" xmlns:xlink="http://www.w3.org/1999/xlink" width="218.0px" height="247.33337px" class="slides-canvas" viewBox="-1 -1 164 186" preserveAspectRatio="none"> 
 <g text-rendering="geometricPrecision" transform="scale(1, 1)"> 
  <g transform="matrix(1, 0, 0, 1, -227, -232)"> 
   <path fill="#AEEADF" d="M226.56 258.16C226.56 243.18 238.7 231.04 253.68 231.04L253.68 231.04 253.68 231.04 294.35 231.04 362.14 231.04C377.11 231.04 389.25 243.18 389.25 258.16L389.25 338.9 389.25 338.9 389.25 385.13 389.25 388.83C389.25 403.81 377.11 415.95 362.14 415.95L294.35 415.95 274.02 439.06 253.68 415.95 253.68 415.95C238.7 415.95 226.56 403.81 226.56 388.83L226.56 385.13 226.56 338.9 226.56 338.9z" /> 
  </g> 
 </g> 
</svg>