<svg version="1.1" xmlns="http://www.w3.org/2000/svg" xmlns:xlink="http://www.w3.org/1999/xlink" width="8.666667px" height="23.33333px" class="slides-canvas" viewBox="-1 -1 7 18" preserveAspectRatio="none"> 
 <g text-rendering="geometricPrecision" transform="scale(1, 1)"> 
  <g transform="matrix(1, 0, 0, 1, -197, -95)"> 
   <path fill="#94F4EB" d="M202.28 94.99C202.28 94.52 201.8 94.52 201.8 94.52 201.8 94.52 201.32 94.52 201.32 94.99 201.32 105.38 201.32 105.38 201.32 105.38 196.53 110.11 196.53 110.11 196.53 110.11 196.53 110.58 196.53 110.58 196.53 110.58 197.01 110.58 197.01 110.58 197.01 110.58 197.01 110.58 197.01 110.58 197.01 110.58 202.28 105.86 202.28 105.86 202.28 105.86 202.28 105.86 202.28 105.86 202.28 105.86 202.28 105.38 202.28 105.38 202.28 105.38L202.28 94.99z" /> 
  </g> 
 </g> 
</svg>