<svg version="1.1" xmlns="http://www.w3.org/2000/svg" xmlns:xlink="http://www.w3.org/1999/xlink" width="230.0px" height="220.66669px" class="slides-canvas" viewBox="-1 -1 173 166" preserveAspectRatio="none"> 
 <g text-rendering="geometricPrecision" transform="scale(1, 1)"> 
  <g transform="matrix(1, 0, 0, 1, -745, -76)"> 
   <path fill="#64C0B1" d="M744.85 102.58C744.85 87.45 757.11 75.19 772.24 75.19L773.42 75.19 773.42 75.19 816.27 75.19 888.86 75.19C903.98 75.19 916.25 87.45 916.25 102.58L916.25 171.05 916.25 171.05 916.25 212.14 916.25 212.14 916.25 212.14C916.25 227.26 903.98 239.53 888.86 239.53L816.27 239.53 794.84 260.07 773.42 239.53 772.24 239.53C757.11 239.53 744.85 227.26 744.85 212.14L744.85 212.14 744.85 171.05 744.85 171.05z" /> 
  </g> 
 </g> 
</svg>