<svg version="1.1" xmlns="http://www.w3.org/2000/svg" xmlns:xlink="http://www.w3.org/1999/xlink" width="70.0px" height="70.0px" class="slides-canvas" viewBox="-1 -1 53 53" preserveAspectRatio="none"> 
 <g text-rendering="geometricPrecision" transform="scale(1, 1)"> 
  <g transform="matrix(1, 0, 0, 1, -118, -259)"> 
   <path fill="#FFFFFF" d="M143.26 309.44C157.58 309.44 168.94 297.83 168.94 283.75 168.94 279.31 167.95 275.11 165.98 271.65 165.73 271.65 165.49 271.65 165.49 271.65 165.24 271.65 165.24 271.65 164.99 271.65 161.78 271.41 161.78 271.41 161.78 271.41 159.31 273.63 159.31 273.63 159.31 273.63 161.29 276.59 162.27 280.05 162.27 283.75 162.27 294.13 153.88 302.52 143.26 302.52 132.89 302.52 124.49 294.13 124.49 283.75 124.49 273.13 132.89 264.74 143.26 264.74 146.96 264.74 150.42 265.73 153.38 267.7 155.36 265.48 155.36 265.48 155.36 265.48 155.11 261.77 155.11 261.77 155.11 261.77 155.11 261.53 155.11 261.03 155.11 260.79 151.65 259.06 147.46 258.07 143.26 258.07 129.18 258.07 117.57 269.43 117.57 283.75 117.57 297.83 129.18 309.44 143.26 309.44z" /> 
  </g> 
 </g> 
</svg>