<svg version="1.1" xmlns="http://www.w3.org/2000/svg" xmlns:xlink="http://www.w3.org/1999/xlink" width="18.000004px" height="18.000004px" class="slides-canvas" viewBox="-1 -1 14 14" preserveAspectRatio="none"> 
 <g text-rendering="geometricPrecision" transform="scale(1, 1)"> 
  <g transform="matrix(1, 0, 0, 1, -417, -90)"> 
   <path fill="#64C0B1" d="M422.08 102.59C425.34 102.59 428.13 99.77 428.13 96.01 428.13 92.72 425.34 89.9 422.08 89.9 418.82 89.9 416.03 92.72 416.03 96.01 416.03 99.77 418.82 102.59 422.08 102.59zM422.08 90.37C425.34 90.37 427.66 93.19 427.66 96.01 427.66 99.3 425.34 102.12 422.08 102.12 418.82 102.12 416.49 99.3 416.49 96.01 416.49 93.19 418.82 90.37 422.08 90.37z" /> 
  </g> 
 </g> 
</svg>