<svg version="1.1" xmlns="http://www.w3.org/2000/svg" xmlns:xlink="http://www.w3.org/1999/xlink" width="10.000001px" height="4.666667px" class="slides-canvas" viewBox="-1 -1 8 4" preserveAspectRatio="none"> 
 <g text-rendering="geometricPrecision" transform="scale(1, 1)"> 
  <g transform="matrix(1, 0, 0, 1, -309, -117)"> 
   <path fill="#96D4CA" d="M313.91 116.28C309.24 116.28 309.24 116.28 309.24 116.28 308.77 116.28 308.31 116.76 308.31 117.71 308.31 118.19 308.77 118.66 309.24 118.66 313.91 118.66 313.91 118.66 313.91 118.66 314.38 118.66 314.85 118.19 314.85 117.71 314.85 116.76 314.38 116.28 313.91 116.28zM313.91 117.71C309.24 117.71 309.24 117.71 309.24 117.71 309.24 117.71 308.77 117.71 308.77 117.71 308.77 117.23 309.24 117.23 309.24 117.23 313.91 117.23 313.91 117.23 313.91 117.23 313.91 117.23 314.38 117.23 314.38 117.71 314.38 117.71 313.91 117.71 313.91 117.71z" /> 
  </g> 
 </g> 
</svg>