<svg version="1.1" xmlns="http://www.w3.org/2000/svg" xmlns:xlink="http://www.w3.org/1999/xlink" width="6.0000005px" height="4.666667px" class="slides-canvas" viewBox="-1 -1 5 4" preserveAspectRatio="none"> 
 <g text-rendering="geometricPrecision" transform="scale(1, 1)"> 
  <g transform="matrix(1, 0, 0, 1, -310, -119)"> 
   <path fill="#96D4CA" d="M312.52 118.66C310.64 118.66 310.64 118.66 310.64 118.66 310.16 118.66 309.69 119.14 309.69 119.61 309.69 120.56 310.16 121.04 310.64 121.04 312.52 121.04 312.52 121.04 312.52 121.04 312.99 121.04 313.46 120.56 313.46 119.61 313.46 119.14 312.99 118.66 312.52 118.66zM312.52 120.09C310.64 120.09 310.64 120.09 310.64 120.09 310.64 120.09 310.16 120.09 310.16 119.61 310.16 119.61 310.64 119.61 310.64 119.61 312.52 119.61 312.52 119.61 312.52 119.61 312.52 119.61 312.99 119.61 312.99 119.61 312.99 120.09 312.52 120.09 312.52 120.09z" /> 
  </g> 
 </g> 
</svg>