<svg version="1.1" xmlns="http://www.w3.org/2000/svg" xmlns:xlink="http://www.w3.org/1999/xlink" width="38.0px" height="67.333336px" class="slides-canvas" viewBox="-1 -1 29 51" preserveAspectRatio="none"> 
 <g text-rendering="geometricPrecision" transform="scale(1, 1)"> 
  <g transform="matrix(1, 0, 0, 1, -500, -282)"> 
   <path fill="#FFFFFF" d="M510.43 331.31C510.43 325.52 510.43 325.52 510.43 325.52 506.23 325.52 502.56 324.46 499.93 322.88 502.03 316.04 502.03 316.04 502.03 316.04 504.13 317.09 507.81 318.67 512.01 318.67 515.16 318.67 517.78 317.09 517.78 314.99 517.78 312.35 515.68 311.3 511.48 309.72 504.66 307.09 500.46 304.46 500.46 298.14 500.46 292.87 504.13 288.66 510.43 287.61 510.43 281.82 510.43 281.82 510.43 281.82 516.73 281.82 516.73 281.82 516.73 281.82 516.73 287.08 516.73 287.08 516.73 287.08 520.41 287.08 523.56 288.13 525.13 289.19 523.56 296.03 523.56 296.03 523.56 296.03 521.98 295.51 519.36 293.93 514.63 293.93 510.96 293.93 509.91 295.51 509.91 297.61 509.91 299.19 512.01 300.77 516.73 302.35 524.08 304.98 527.23 308.67 527.23 313.93 527.23 319.2 523.03 323.94 516.21 325.52 516.21 331.31 516.21 331.31 516.21 331.31L510.43 331.31z" /> 
  </g> 
 </g> 
</svg>