<svg version="1.1" xmlns="http://www.w3.org/2000/svg" xmlns:xlink="http://www.w3.org/1999/xlink" width="64.66667px" height="64.66667px" class="slides-canvas" viewBox="-1 -1 49 49" preserveAspectRatio="none"> 
 <g text-rendering="geometricPrecision" transform="scale(1, 1)"> 
  <g transform="matrix(1, 0, 0, 1, -779, -299)"> 
   <path fill="#FFFFFF" d="M822.82 317.34C820.59 317.34 820.59 317.34 820.59 317.34 820.03 317.34 819.19 316.78 819.19 316.22 818.91 315.39 818.63 314.83 818.35 314.27 818.07 313.71 818.07 312.87 818.63 312.31 820.31 310.64 820.31 310.64 820.31 310.64 821.43 309.52 821.43 307.85 820.31 306.73 817.52 303.94 817.52 303.94 817.52 303.94 816.96 303.38 816.4 303.1 815.56 303.1 814.72 303.1 813.89 303.38 813.33 303.94 811.93 305.61 811.93 305.61 811.93 305.61 811.65 305.89 811.09 306.17 810.81 306.17 810.53 306.17 810.26 305.89 809.98 305.89 809.42 305.61 808.58 305.33 808.02 305.05 807.46 304.77 806.9 304.21 806.9 303.66 806.9 301.14 806.9 301.14 806.9 301.14 806.9 299.75 805.51 298.35 804.11 298.35 800.2 298.35 800.2 298.35 800.2 298.35 798.81 298.35 797.41 299.75 797.41 301.14 797.41 303.66 797.41 303.66 797.41 303.66 797.41 304.21 796.85 304.77 796.29 305.05 795.45 305.33 794.9 305.61 794.34 305.89 794.06 305.89 793.78 306.17 793.5 306.17 793.22 306.17 792.66 305.89 792.38 305.61 790.71 303.94 790.71 303.94 790.71 303.94 790.15 303.38 789.59 303.1 788.75 303.1 787.91 303.1 787.36 303.38 786.8 303.94 784 306.73 784 306.73 784 306.73 783.45 307.29 783.17 307.85 783.17 308.68 783.17 309.52 783.45 310.08 784 310.64 785.68 312.31 785.68 312.31 785.68 312.31 786.24 312.87 786.24 313.71 785.96 314.27 785.68 314.83 785.4 315.39 785.12 316.22 784.84 316.78 784.28 317.34 783.73 317.34 781.49 317.34 781.49 317.34 781.49 317.34 779.82 317.34 778.42 318.74 778.42 320.13 778.42 324.04 778.42 324.04 778.42 324.04 778.42 325.44 779.82 326.83 781.49 326.83 783.73 326.83 783.73 326.83 783.73 326.83 784.28 326.83 784.84 327.39 785.12 327.95 785.4 328.51 785.68 329.35 785.96 329.91 786.24 330.47 786.24 331.3 785.68 331.86 784 333.26 784 333.26 784 333.26 782.89 334.37 782.89 336.33 784 337.45 786.8 339.96 786.8 339.96 786.8 339.96 787.36 340.52 787.91 341.08 788.75 341.08 789.59 341.08 790.15 340.52 790.71 339.96 792.38 338.56 792.38 338.56 792.38 338.56 792.66 338.28 793.22 338.01 793.5 338.01 793.78 338.01 794.06 338.01 794.34 338.28 794.9 338.56 795.45 338.84 796.29 339.12 796.85 339.12 797.41 339.96 797.41 340.52 797.41 342.75 797.41 342.75 797.41 342.75 797.41 344.43 798.81 345.82 800.2 345.82 804.11 345.82 804.11 345.82 804.11 345.82 805.51 345.82 806.9 344.43 806.9 342.75 806.9 340.52 806.9 340.52 806.9 340.52 806.9 339.96 807.46 339.12 808.02 339.12 808.58 338.84 809.42 338.56 809.98 338.28 810.26 338.01 810.53 338.01 810.81 338.01 811.09 338.01 811.65 338.28 811.93 338.56 813.33 339.96 813.33 339.96 813.33 339.96 813.89 340.52 814.72 341.08 815.56 341.08 816.4 341.08 816.96 340.52 817.52 339.96 820.31 337.45 820.31 337.45 820.31 337.45 821.43 336.33 821.43 334.37 820.31 333.26 818.63 331.86 818.63 331.86 818.63 331.86 818.07 331.3 818.07 330.47 818.35 329.91 818.63 329.35 818.91 328.51 819.19 327.95 819.19 327.39 820.03 326.83 820.59 326.83 822.82 326.83 822.82 326.83 822.82 326.83 824.5 326.83 825.89 325.44 825.89 324.04 825.89 320.13 825.89 320.13 825.89 320.13 825.89 318.74 824.5 317.34 822.82 317.34M810.53 322.09C810.53 326.83 806.9 330.47 802.16 330.47 797.41 330.47 793.78 326.83 793.78 322.09 793.78 317.34 797.41 313.43 802.16 313.43 806.9 313.43 810.53 317.34 810.53 322.09" /> 
  </g> 
 </g> 
</svg>