<svg version="1.1" xmlns="http://www.w3.org/2000/svg" xmlns:xlink="http://www.w3.org/1999/xlink" width="43.33334px" height="43.33334px" class="slides-canvas" viewBox="-1 -1 33 33" preserveAspectRatio="none"> 
 <g text-rendering="geometricPrecision" transform="scale(1, 1)"> 
  <g transform="matrix(1, 0, 0, 1, -186, -90)"> 
   <path fill="#94F4EB" d="M201.79 89.36C192.86 89.36 185.82 96.87 185.82 105.33 185.82 114.25 192.86 121.29 201.79 121.29 210.71 121.29 217.75 114.25 217.75 105.33 217.75 96.87 210.71 89.36 201.79 89.36zM201.79 120.82C193.33 120.82 186.76 113.78 186.76 105.33 186.76 96.87 193.33 90.3 201.79 90.3 210.24 90.3 216.81 96.87 216.81 105.33 216.81 113.78 210.24 120.82 201.79 120.82z" /> 
  </g> 
 </g> 
</svg>