<svg version="1.1" xmlns="http://www.w3.org/2000/svg" xmlns:xlink="http://www.w3.org/1999/xlink" width="48.666664px" height="40.666668px" class="slides-canvas" viewBox="-1 -1 37 31" preserveAspectRatio="none"> 
 <g text-rendering="geometricPrecision" transform="scale(1, 1)"> 
  <g transform="matrix(1, 0, 0, 1, -71, -90)"> 
   <path fill="#D7F5EF" d="M100.8 118.51L90.89 118.51 90.89 108.2 86.13 108.2 86.13 118.51 76.21 118.51 76.21 103.44 70.66 103.44 88.51 89.36 93.66 93.53 93.66 89.96 97.83 89.96 97.83 96.9 106.36 103.44 100.8 103.44 100.8 118.51zM91.88 118.12L99.81 118.12 99.81 103.04 103.98 103.04 97.04 97.29 97.04 90.35 94.06 90.35 94.06 95.11 88.51 90.35 73.04 103.04 77.2 103.04 77.2 118.12 85.14 118.12 85.14 107.21 91.88 107.21 91.88 118.12z" /> 
  </g> 
 </g> 
</svg>