<svg version="1.1" xmlns="http://www.w3.org/2000/svg" xmlns:xlink="http://www.w3.org/1999/xlink" width="42.0px" height="42.0px" class="slides-canvas" viewBox="-1 -1 32 32" preserveAspectRatio="none"> 
 <g text-rendering="geometricPrecision" transform="scale(1, 1)"> 
  <g transform="matrix(1, 0, 0, 1, -429, -212)"> 
   <path fill="#FFFFFF" d="M445.98 211.38C442.27 211.38 442.27 211.38 442.27 211.38 441.34 216.01 441.34 216.01 441.34 216.01 439.95 216.01 439.03 216.47 438.1 217.4 434.39 215.08 434.39 215.08 434.39 215.08 432.07 217.4 432.07 217.4 432.07 217.4 434.39 221.1 434.39 221.1 434.39 221.1 433.46 222.02 433 222.95 433 224.34 428.82 224.8 428.82 224.8 428.82 224.8 428.82 228.96 428.82 228.96 428.82 228.96 433 229.89 433 229.89 433 229.89 433 230.81 433.46 232.2 434.39 233.13 431.61 236.36 431.61 236.36 431.61 236.36 434.39 239.14 434.39 239.14 434.39 239.14 438.1 236.83 438.1 236.83 438.1 236.83 439.03 237.75 440.42 238.21 441.34 238.21 442.27 242.38 442.27 242.38 442.27 242.38 445.98 242.38 445.98 242.38 445.98 242.38 446.91 238.21 446.91 238.21 446.91 238.21 447.84 238.21 449.23 237.75 450.15 236.83 453.86 239.6 453.86 239.6 453.86 239.6 456.18 236.83 456.18 236.83 456.18 236.83 453.86 233.13 453.86 233.13 453.86 233.13 454.79 232.2 455.25 230.81 455.25 229.89 459.43 228.96 459.43 228.96 459.43 228.96 459.43 225.26 459.43 225.26 459.43 225.26 455.25 224.34 455.25 224.34 455.25 224.34 455.25 222.95 454.79 222.02 453.86 221.1 456.65 217.4 456.65 217.4 456.65 217.4 453.86 215.08 453.86 215.08 453.86 215.08 450.15 217.4 450.15 217.4 450.15 217.4 449.23 216.47 447.84 216.01 446.91 216.01L445.98 211.38zM452.01 227.11C452.01 231.28 448.3 234.51 444.13 234.51 439.95 234.51 436.71 231.28 436.71 227.11 436.71 222.95 439.95 219.25 444.13 219.25 448.3 219.25 452.01 222.95 452.01 227.11z" /> 
  </g> 
 </g> 
</svg>