<svg version="1.1" xmlns="http://www.w3.org/2000/svg" xmlns:xlink="http://www.w3.org/1999/xlink" width="12.666665px" height="4.666667px" class="slides-canvas" viewBox="-1 -1 10 4" preserveAspectRatio="none"> 
 <g text-rendering="geometricPrecision" transform="scale(1, 1)"> 
  <g transform="matrix(1, 0, 0, 1, -308, -114)"> 
   <path fill="#96D4CA" d="M314.42 113.5C308.73 113.5 308.73 113.5 308.73 113.5 307.79 113.5 307.31 113.97 307.31 114.89 307.31 115.82 307.79 116.28 308.73 116.28 314.42 116.28 314.42 116.28 314.42 116.28 315.37 116.28 315.84 115.82 315.84 114.89 315.84 113.97 315.37 113.5 314.42 113.5zM314.42 115.82C308.73 115.82 308.73 115.82 308.73 115.82 308.26 115.82 308.26 115.36 308.26 114.89 308.26 114.43 308.26 114.43 308.73 114.43 314.42 114.43 314.42 114.43 314.42 114.43 314.89 114.43 314.89 114.43 314.89 114.89 314.89 115.36 314.89 115.82 314.42 115.82z" /> 
  </g> 
 </g> 
</svg>