<svg version="1.1" xmlns="http://www.w3.org/2000/svg" xmlns:xlink="http://www.w3.org/1999/xlink" width="43.33334px" height="43.33334px" class="slides-canvas" viewBox="-1 -1 33 33" preserveAspectRatio="none"> 
 <g text-rendering="geometricPrecision" transform="scale(1, 1)"> 
  <g transform="matrix(1, 0, 0, 1, -144, -253)"> 
   <path fill="#FFFFFF" d="M169.66 260.7C171.39 259.22 171.39 259.22 171.39 259.22 171.89 258.47 171.89 257.24 171.39 256.74 170.15 255.5 170.15 255.5 170.15 255.5 169.91 255.26 169.41 255.01 168.92 255.01 168.42 255.01 168.17 255.26 167.68 255.5 165.94 257.24 165.94 257.24 165.94 257.24 165.7 252.78 165.7 252.78 165.7 252.78 165.7 252.28 165.2 252.04 164.95 252.04 164.95 252.04 164.71 252.28 164.71 252.28 157.77 259.22 157.77 259.22 157.77 259.22 157.03 259.71 156.78 260.7 156.78 261.45 156.78 261.69 156.78 261.69 156.78 261.69 157.28 266.15 157.28 266.15 157.28 266.15 154.8 268.63 154.8 268.63 154.8 268.63 150.35 273.08 150.35 273.08 150.35 273.08 150.1 273.08 150.1 273.08 150.1 273.08 145.89 277.54 145.89 277.54 145.89 277.54 143.91 279.52 143.91 279.52 143.91 279.52 143.66 279.77 143.41 280.01 143.41 280.26 143.41 281.99 143.41 281.99 143.41 281.99 143.17 282.74 143.91 283.48 144.9 283.48 144.9 283.48 144.9 283.48 144.9 283.48 146.39 283.48 146.39 283.48 146.39 283.48 146.88 283.48 147.13 283.23 147.38 282.99 160.99 269.37 160.99 269.37 160.99 269.37 164.95 269.86 164.95 269.86 164.95 269.86 165.2 269.86 165.2 269.86 165.2 269.86 165.45 269.86 165.45 269.86 165.45 269.86 166.19 269.86 166.93 269.37 167.43 268.87 174.36 261.94 174.36 261.94 174.36 261.94 174.61 261.69 174.36 260.95 173.87 260.95L169.66 260.7z" /> 
  </g> 
 </g> 
</svg>