<svg version="1.1" xmlns="http://www.w3.org/2000/svg" xmlns:xlink="http://www.w3.org/1999/xlink" width="32.66666px" height="23.33333px" class="slides-canvas" viewBox="-1 -1 25 18" preserveAspectRatio="none"> 
 <g text-rendering="geometricPrecision" transform="scale(1, 1)"> 
  <g transform="matrix(1, 0, 0, 1, -411, -103)"> 
   <path fill="#64C0B1" d="M429.63 102.99C426.33 102.99 426.33 102.99 426.33 102.99 423.97 113.34 423.97 113.34 423.97 113.34 422.08 105.34 422.08 105.34 422.08 105.34 423.49 103.93 423.49 103.93 423.49 103.93 423.02 102.99 423.02 102.99 423.02 102.99 422.08 102.99 422.08 102.99 422.08 102.99 421.13 102.99 421.13 102.99 421.13 102.99 420.66 103.93 420.66 103.93 420.66 103.93 422.08 105.34 422.08 105.34 422.08 105.34 420.19 113.34 420.19 113.34 420.19 113.34 417.83 102.99 417.83 102.99 417.83 102.99 414.53 102.99 414.53 102.99 414.53 102.99 412.17 102.99 410.28 105.34 410.28 108.63 410.28 119.45 410.28 119.45 410.28 119.45 433.88 119.45 433.88 119.45 433.88 119.45 433.88 108.63 433.88 108.63 433.88 108.63 433.88 105.34 431.99 102.99 429.63 102.99zM433.41 118.51C410.75 118.51 410.75 118.51 410.75 118.51 410.75 108.63 410.75 108.63 410.75 108.63 410.75 105.81 412.64 103.46 414.53 103.46 417.36 103.46 417.36 103.46 417.36 103.46 420.19 116.63 420.19 116.63 420.19 116.63 422.08 107.69 422.08 107.69 422.08 107.69 423.97 116.63 423.97 116.63 423.97 116.63 426.8 103.46 426.8 103.46 426.8 103.46 429.63 103.46 429.63 103.46 429.63 103.46 431.52 103.46 433.41 105.81 433.41 108.63L433.41 118.51z" /> 
  </g> 
 </g> 
</svg>